<?xml version="1.0" encoding="UTF-8"?>
<svg id="Layer_2" data-name="Layer 2" xmlns="http://www.w3.org/2000/svg" viewBox="0 0 1410.07 305.39">
  <defs>
    <style>
      .cls-1 {
        fill: #fff;
      }

      .cls-2 {
        fill: #e2d6c3;
      }
    </style>
  </defs>
  <g id="Layer_1-2" data-name="Layer 1">
    <path class="cls-2" d="M1345.35,286.46c-.34,2.97-1.53,6.74-3.27,9.16-4.47,6.19-10.59,9.49-18.14,9.77l-148.48-1.31c-3.54-.47-9.14-1.77-13.69-6-7.7-7.16-7.84-18.46-7.83-24.23.09-54.91,1.87-124.18,1.87-124.18,63.22.85,126.45,1.7,189.67,2.54-.32,41.69-.38,83.55-.18,125.56.01,2.7.03,5.99.05,8.69Z"/>
    <path class="cls-2" d="M1345.48,198.01h-190.09l1.03-119.09c2.35-12.01,10.47-17.21,22.11-18.23,46.46-4.04,99.89,4.29,147.08,1.3,9.36,1.09,15.76,4.76,19.75,13.63,2.06,40.59.65,81.54.12,122.39Z"/>
    <path class="cls-2" d="M1357.75,140.98c17.31-16.89,34.62-33.78,51.93-50.67-.09,38.15-.12,76.29-.09,114.42,0,1.28,0,8.82,0,10.1-4.31,22.3-21.14,19.53-38.3,19.22-2.72-.05-12.87,2.16-13.82-.8.09-30.76.18-61.52.27-92.28Z"/>
    <path class="cls-2" d="M1409.68,140.98h-51.93l.36-65.62c-.36-12.86-7.11-21.95-20.36-23.66l-118.78-.07c1.41-18.96-7.25-46.86,19.09-51.63l152.03.03c8.53.66,15.53,7.18,18.62,14.89,2.04,41.83,1.26,84,.97,126.06Z"/>
    <path class="cls-1" d="M1314.86,282.31l-131.71-.61c-3.21-1.76-5.28-4.91-6.5-9.25l.25-179.13c1.54-5.1,4.79-8.68,8.93-9.36,10.3-1.68,30.92-.86,41.74-.03,49.05,3.78,87.99,49.34,94.46,115.86,1.54,15.8,2.63,55.71.9,70.85-.64,5.57-4.17,10.1-8.06,11.66Z"/>
    <g>
      <path class="cls-2" d="M73.94,254.61c-20.06,0-36.55-4.55-49.47-13.64C11.55,231.88,3.47,219.85.24,204.89c-1.02-4.76,1.19-7.56,6.63-8.42l25.25-4.08c4.08-.68,7.05,1.36,8.92,6.12,2.21,5.95,6.29,10.63,12.24,14.03,5.95,3.4,13.09,5.1,21.42,5.1s14.32-1.61,19-4.84c4.67-3.23,7.01-7.56,7.01-13,0-7.82-5.02-12.83-15.04-15.04l-35.44-8.42c-14.96-3.57-26.44-9.94-34.43-19.12-7.99-9.18-11.98-20.23-11.98-33.15,0-17,6.46-30.68,19.38-41.06,12.92-10.37,29.49-15.55,49.72-15.55,16.49,0,30.3,3.61,41.44,10.84,11.13,7.23,19,16.96,23.59,29.2,1.7,4.76,0,7.99-5.1,9.69l-24.23,7.14c-4.08,1.19-7.14-.42-9.18-4.84-4.76-10.03-13.69-15.04-26.78-15.04-7.14,0-12.96,1.75-17.47,5.23-4.51,3.49-6.76,7.78-6.76,12.88,0,7.31,5.52,12.33,16.58,15.04l35.19,8.93c14.79,3.74,26.01,10.2,33.66,19.38,7.65,9.18,11.47,20.06,11.47,32.64,0,17-6.55,30.6-19.63,40.8-13.09,10.2-30.34,15.3-51.76,15.3Z"/>
      <path class="cls-2" d="M225.92,120.99c18.87,0,34.04,6.12,45.52,18.36,11.48,12.24,17.21,28.39,17.21,48.45v4.59c0,5.1-2.55,7.65-7.65,7.65h-80.33c3.57,13.26,12.92,19.89,28.05,19.89,8.84,0,15.55-2.12,20.14-6.38,3.74-3.23,7.22-4.16,10.46-2.8l18.11,7.65c5.1,2.21,6.38,5.44,3.82,9.69-5.44,7.99-12.92,14.41-22.44,19.25-9.52,4.85-19.63,7.27-30.34,7.27-20.06,0-36.17-6.12-48.32-18.36-12.16-12.24-18.23-28.39-18.23-48.45s5.87-36.21,17.59-48.45c11.73-12.24,27.2-18.36,46.41-18.36ZM224.64,155.67c-13.43,0-21.59,7.14-24.48,21.42h49.98c-1.87-14.28-10.37-21.42-25.5-21.42Z"/>
      <path class="cls-2" d="M433.49,62.85c5.1,0,7.65,2.55,7.65,7.65v173.4c0,5.1-2.55,7.65-7.65,7.65h-21.42c-4.42,0-7.23-2.21-8.41-6.63l-3.32-11.99h-1.02c-1.7,6.46-5.86,11.69-12.49,15.68-6.63,3.99-14.54,5.99-23.72,5.99-17.34,0-31.33-6.12-41.95-18.36-10.63-12.24-15.94-28.39-15.94-48.45s5.31-36.21,15.94-48.45c10.62-12.24,24.61-18.36,41.95-18.36,9.18,0,17.08,1.96,23.72,5.87,6.63,3.91,10.79,9.1,12.49,15.55h1.02v-71.91c0-5.1,2.55-7.65,7.65-7.65h25.5ZM373.31,217.64c8.16,0,14.7-2.72,19.63-8.16,4.93-5.44,7.4-12.66,7.4-21.67s-2.47-16.19-7.4-21.55c-4.93-5.35-11.47-8.03-19.63-8.03s-14.41,2.72-19.25,8.16c-4.85,5.44-7.27,12.58-7.27,21.42s2.42,16.03,7.27,21.55c4.84,5.53,11.26,8.29,19.25,8.29Z"/>
      <path class="cls-2" d="M474.29,103.65c-5.1,0-7.65-2.55-7.65-7.65v-25.5c0-5.1,2.55-7.65,7.65-7.65h25.5c5.1,0,7.65,2.55,7.65,7.65v25.5c0,5.1-2.55,7.65-7.65,7.65h-25.5ZM474.29,251.55c-5.1,0-7.65-2.55-7.65-7.65v-112.2c0-5.1,2.55-7.65,7.65-7.65h25.5c5.1,0,7.65,2.55,7.65,7.65v112.2c0,5.1-2.55,7.65-7.65,7.65h-25.5Z"/>
      <path class="cls-2" d="M648.96,124.05c5.1,0,7.65,2.55,7.65,7.65v112.2c0,5.1-2.55,7.65-7.65,7.65h-21.42c-4.42,0-7.23-2.21-8.42-6.63l-3.32-11.99h-1.02c-2.04,6.46-6.5,11.69-13.39,15.68-6.89,3.99-15.01,5.99-24.35,5.99-13.6,0-24.57-4.33-32.9-13-8.33-8.67-12.5-20.15-12.5-34.43v-75.48c0-5.1,2.55-7.65,7.65-7.65h25.5c5.1,0,7.65,2.55,7.65,7.65v61.2c0,6.97,1.95,12.62,5.86,16.96,3.91,4.33,9.09,6.5,15.56,6.5s11.94-2.17,15.94-6.5c3.99-4.33,5.99-9.98,5.99-16.96v-61.2c0-5.1,2.55-7.65,7.65-7.65h25.5Z"/>
      <path class="cls-2" d="M749.68,254.61c-20.06,0-36.55-4.55-49.47-13.64-12.92-9.09-21-21.12-24.23-36.08-1.02-4.76,1.19-7.56,6.63-8.42l25.25-4.08c4.08-.68,7.05,1.36,8.92,6.12,2.21,5.95,6.29,10.63,12.24,14.03,5.95,3.4,13.09,5.1,21.42,5.1s14.32-1.61,19-4.84c4.67-3.23,7.01-7.56,7.01-13,0-7.82-5.02-12.83-15.04-15.04l-35.44-8.42c-14.96-3.57-26.44-9.94-34.43-19.12-7.99-9.18-11.98-20.23-11.98-33.15,0-17,6.46-30.68,19.38-41.06,12.92-10.37,29.49-15.55,49.72-15.55,16.49,0,30.3,3.61,41.44,10.84,11.13,7.23,19,16.96,23.59,29.2,1.7,4.76,0,7.99-5.1,9.69l-24.23,7.14c-4.08,1.19-7.14-.42-9.18-4.84-4.76-10.03-13.69-15.04-26.78-15.04-7.14,0-12.96,1.75-17.47,5.23-4.51,3.49-6.76,7.78-6.76,12.88,0,7.31,5.52,12.33,16.58,15.04l35.19,8.93c14.79,3.74,26.01,10.2,33.66,19.38,7.65,9.18,11.47,20.06,11.47,32.64,0,17-6.55,30.6-19.63,40.8-13.09,10.2-30.34,15.3-51.76,15.3Z"/>
      <path class="cls-2" d="M986.58,242.63c1.19,2.72,1.28,4.89.25,6.5-1.02,1.62-2.98,2.42-5.86,2.42h-31.88c-4.08,0-7.06-1.95-8.93-5.87l-23.2-52.78h-29.58v51c0,5.1-2.55,7.65-7.65,7.65h-28.05c-5.1,0-7.65-2.55-7.65-7.65V78.15c0-5.1,2.55-7.65,7.65-7.65h71.14c19.21,0,34.68,5.61,46.41,16.83,11.73,11.22,17.59,26.01,17.59,44.37,0,11.73-2.51,22.15-7.52,31.24-5.02,9.1-12.03,16.19-21.04,21.29l28.3,58.39ZM887.38,111.3v40.8h31.36c6.97,0,12.62-1.87,16.96-5.61,4.33-3.74,6.5-8.67,6.5-14.79s-2.17-11.05-6.5-14.79c-4.33-3.74-9.99-5.61-16.96-5.61h-31.36Z"/>
      <path class="cls-2" d="M1120.7,210.75c5.1,0,7.65,2.55,7.65,7.65v25.5c0,5.1-2.55,7.65-7.65,7.65h-101.23c-5.1,0-7.65-2.55-7.65-7.65V78.15c0-5.1,2.55-7.65,7.65-7.65h28.05c5.1,0,7.65,2.55,7.65,7.65v132.6h65.53Z"/>
    </g>
    <g>
      <path class="cls-2" d="M1194.03,251.55c-2,0-3-1-3-3v-11c0-2,1-3,3-3h11c2,0,3,1,3,3v11c0,2-1,3-3,3h-11Z"/>
      <path class="cls-2" d="M1248.03,201.55c2,0,3,1,3,3v10c0,2-1,3-3,3h-4.7c-3.07,0-5.55,1.17-7.45,3.5-1.9,2.33-2.85,5.4-2.85,9.2v18.3c0,2-1,3-3,3h-10c-2,0-3-1-3-3v-44c0-2,1-3,3-3h8.3c1.8,0,2.9.9,3.3,2.7l1.4,6.9h.2c.67-2.87,2.12-5.18,4.35-6.95,2.23-1.77,4.82-2.65,7.75-2.65h2.7Z"/>
      <path class="cls-2" d="M1300.88,245.45c-4.9,4.8-11.38,7.2-19.45,7.2s-14.57-2.4-19.5-7.2c-4.93-4.8-7.4-11.13-7.4-19s2.47-14.21,7.4-19.05c4.93-4.83,11.43-7.25,19.5-7.25s14.55,2.42,19.45,7.25c4.9,4.83,7.35,11.18,7.35,19.05s-2.45,14.2-7.35,19ZM1281.43,237.65c3.13,0,5.67-1.03,7.6-3.1,1.93-2.07,2.9-4.77,2.9-8.1s-.97-6.13-2.9-8.2c-1.93-2.07-4.47-3.1-7.6-3.1s-5.77,1.03-7.7,3.1c-1.93,2.07-2.9,4.8-2.9,8.2s.97,6.04,2.9,8.1c1.93,2.07,4.5,3.1,7.7,3.1Z"/>
    </g>
    <rect class="cls-2" x="1192.06" y="147.97" width="77.71" height="10" rx="5" ry="5"/>
    <rect class="cls-2" x="1192.06" y="117.6" width="51.76" height="10" rx="5" ry="5"/>
  </g>
</svg>